<svg width="800px" height="800px" viewBox="0 0 1024 1024" class="icon" version="1.1" xmlns="http://www.w3.org/2000/svg">
<path d="M301.226643 1002.666249A34.773319 34.773319 0 0 1 266.666658 968.106263V399.999833c0-45.226648 71.253304-152.53327 116.266618-209.706579l4.479998-5.759998V109.439954h248.959896v75.093302l4.479999 5.759998C686.079816 247.466564 757.33312 354.773186 757.33312 399.999833v568.10643A34.773319 34.773319 0 0 1 722.559801 1002.666249z" fill="#1a5a2b"/>
<path d="M615.039846 130.773279V191.99992l9.173329 11.519995c53.759978 68.053305 111.78662 162.559932 111.786621 196.479918v568.10643a13.439994 13.439994 0 0 1-13.226662 13.226661H301.226643a13.439994 13.439994 0 0 1-13.226661-13.226661V399.999833c0-33.706653 58.026642-127.999947 111.78662-196.479918L408.959932 191.99992V130.773279h206.293247m42.666649-42.666649H366.293283V177.066593S245.333333 330.453196 245.333333 399.999833v568.10643A55.89331 55.89331 0 0 0 301.226643 1023.999573h421.333158A55.89331 55.89331 0 0 0 778.666444 968.106263V399.999833c0-69.546638-120.95995-222.93324-120.959949-222.93324V88.10663z" fill="#6bc585"/>
<path d="M321.706635 21.333324l380.373175 0 0 106.666623-380.373175 0 0-106.666623Z" fill="#9FDBAD"/>
<path d="M680.959818 42.666649v63.999973H343.039959V42.666649h337.919859m15.146661-42.666649H327.893299a27.519989 27.519989 0 0 0-27.519989 27.519989v94.293294A27.519989 27.519989 0 0 0 327.893299 149.333271h367.999847a27.519989 27.519989 0 0 0 27.519988-27.519988V27.519989A27.519989 27.519989 0 0 0 695.893146 0z" fill="#6bc585"/>
<path d="M266.666658 469.333138h490.666462v341.333191H266.666658z" fill="#6bc585"/>
<path d="M735.999796 490.666462v298.666542H287.999982V490.666462h447.999814m42.666648-42.666649H245.333333v383.99984h533.333111V447.999813z" fill="#6bc585"/></svg>