<svg xmlns="http://www.w3.org/2000/svg" xmlns:xlink="http://www.w3.org/1999/xlink"
  viewBox="74 74 350 350" preserveAspectRatio="xMidYMid meet"
  style="transform: translate3d(0px, 0px, 0px); content-visibility: visible;">

  <g
    transform="matrix(-0.04051760956645012,0.7655611634254456,-0.7655611634254456,-0.04051760956645012,248.34439086914062,242.50682067871094)"
    opacity="1" style="display: block;">
    <g opacity="1" transform="matrix(1,0,0,1,0,0)">
      <g opacity="1" transform="matrix(1,0,0,1,0,0)">
        <path fill="transparent" fill-opacity="1"
          d=" M22.222000122070312,-15.895000457763672 C43.891998291015625,-5.452000141143799 88.04499816894531,12.649999618530273 129.3280029296875,11.430999755859375 C191.0469970703125,9.64799976348877 207.7949981689453,47.051998138427734 192.5019989013672,75.62200164794922 C177.20899963378906,104.19200134277344 131.5449981689453,133.01800537109375 80.72799682617188,105.85600280761719 C47.0629997253418,87.7959976196289 26.357999801635742,37.28900146484375 16.091999053955078,5.281000137329102 C12.994999885559082,29.195999145507812 9.418000221252441,76.55599975585938 23.216999053955078,115.38800048828125 C44.05500030517578,173.45399475097656 13.706000328063965,201.00999450683594 -18.191999435424805,195.29299926757812 C-50.09000015258789,189.5749969482422 -91.74500274658203,155.01699829101562 -81.5459976196289,98.30599975585938 C-74.7490005493164,60.6510009765625 -32.941001892089844,25.270000457763672 -5.578000068664551,5.645999908447266 C-29.267000198364258,10.0649995803833 -75.6709976196289,21.386999130249023 -108.41799926757812,46.57500076293945 C-157.26400756835938,84.33899688720703 -192.7310028076172,63.96699905395508 -197.2259979248047,31.893999099731445 C-201.62899780273438,-0.22300000488758087 -181.61700439453125,-50.5369987487793 -124.54000091552734,-58.37900161743164 C-86.77899932861328,-63.58000183105469 -40.332000732421875,-34.869998931884766 -13.14900016784668,-14.92199993133545 C-24.69700050354004,-36.183998107910156 -49.60499954223633,-76.57499694824219 -83.61699676513672,-99.81500244140625 C-134.61300659179688,-134.6300048828125 -126.27400207519531,-174.74000549316406 -97.05599975585938,-188.88900756835938 C-67.93000030517578,-202.99400329589844 -13.927000045776367,-199.56100463867188 11.20300006866455,-147.66900634765625 C27.851999282836914,-113.29000091552734 14.857000350952148,-60.00400161743164 4.146999835968018,-28.077999114990234 C20.7189998626709,-45.547000885009766 51.685001373291016,-81.93499755859375 63.2239990234375,-121.5459976196289 C80.60099792480469,-180.822998046875 121.375,-185.20700073242188 143.84300231933594,-161.83799743652344 C166.218994140625,-138.4250030517578 179.61700439453125,-86.08599853515625 138.072998046875,-46.16899871826172 C110.48600006103516,-19.724000930786133 55.92900085449219,-15.605999946594238 22.222000122070312,-15.895000457763672z"></path>
        <path stroke-linecap="round" stroke-linejoin="round" fill-opacity="0" fill="transparent"
          stroke="white"
          stroke-opacity="1" stroke-width="10"
          d=" M22.222000122070312,-15.895000457763672 C43.891998291015625,-5.452000141143799 88.04499816894531,12.649999618530273 129.3280029296875,11.430999755859375 C191.0469970703125,9.64799976348877 207.7949981689453,47.051998138427734 192.5019989013672,75.62200164794922 C177.20899963378906,104.19200134277344 131.5449981689453,133.01800537109375 80.72799682617188,105.85600280761719 C47.0629997253418,87.7959976196289 26.357999801635742,37.28900146484375 16.091999053955078,5.281000137329102 C12.994999885559082,29.195999145507812 9.418000221252441,76.55599975585938 23.216999053955078,115.38800048828125 C44.05500030517578,173.45399475097656 13.706000328063965,201.00999450683594 -18.191999435424805,195.29299926757812 C-50.09000015258789,189.5749969482422 -91.74500274658203,155.01699829101562 -81.5459976196289,98.30599975585938 C-74.7490005493164,60.6510009765625 -32.941001892089844,25.270000457763672 -5.578000068664551,5.645999908447266 C-29.267000198364258,10.0649995803833 -75.6709976196289,21.386999130249023 -108.41799926757812,46.57500076293945 C-157.26400756835938,84.33899688720703 -192.7310028076172,63.96699905395508 -197.2259979248047,31.893999099731445 C-201.62899780273438,-0.22300000488758087 -181.61700439453125,-50.5369987487793 -124.54000091552734,-58.37900161743164 C-86.77899932861328,-63.58000183105469 -40.332000732421875,-34.869998931884766 -13.14900016784668,-14.92199993133545 C-24.69700050354004,-36.183998107910156 -49.60499954223633,-76.57499694824219 -83.61699676513672,-99.81500244140625 C-134.61300659179688,-134.6300048828125 -126.27400207519531,-174.74000549316406 -97.05599975585938,-188.88900756835938 C-67.93000030517578,-202.99400329589844 -13.927000045776367,-199.56100463867188 11.20300006866455,-147.66900634765625 C27.851999282836914,-113.29000091552734 14.857000350952148,-60.00400161743164 4.146999835968018,-28.077999114990234 C20.7189998626709,-45.547000885009766 51.685001373291016,-81.93499755859375 63.2239990234375,-121.5459976196289 C80.60099792480469,-180.822998046875 121.375,-185.20700073242188 143.84300231933594,-161.83799743652344 C166.218994140625,-138.4250030517578 179.61700439453125,-86.08599853515625 138.072998046875,-46.16899871826172 C110.48600006103516,-19.724000930786133 55.92900085449219,-15.605999946594238 22.222000122070312,-15.895000457763672z"></path>
      </g>
    </g>
    <g opacity="1" transform="matrix(1,0,0,1,0,0)">
      <path fill="white" fill-opacity="1"
        d=" M57.37099838256836,-39.05099868774414 C71.79399871826172,-9.269000053405762 59.34199905395508,26.566999435424805 29.559999465942383,40.9900016784668 C-0.22200000286102295,55.41299819946289 -36.05699920654297,42.96099853515625 -50.47999954223633,13.178999900817871 C-64.90299987792969,-16.60300064086914 -52.45100021362305,-52.43899917602539 -22.66900062561035,-66.86199951171875 C7.11299991607666,-81.28500366210938 42.948001861572266,-68.83300018310547 57.37099838256836,-39.05099868774414z"></path>
      <path stroke-linecap="round" stroke-linejoin="round" fill-opacity="1" fill="transparent"
        stroke="white"
        stroke-opacity="1" stroke-width="10"
        d=" M57.37099838256836,-39.05099868774414 C71.79399871826172,-9.269000053405762 59.34199905395508,26.566999435424805 29.559999465942383,40.9900016784668 C-0.22200000286102295,55.41299819946289 -36.05699920654297,42.96099853515625 -50.47999954223633,13.178999900817871 C-64.90299987792969,-16.60300064086914 -52.45100021362305,-52.43899917602539 -22.66900062561035,-66.86199951171875 C7.11299991607666,-81.28500366210938 42.948001861572266,-68.83300018310547 57.37099838256836,-39.05099868774414z"></path>
    </g>
  </g>
</svg>