<svg xmlns="http://www.w3.org/2000/svg" width="265" height="1059" viewBox="0 0 265 1059" fill="none">
<line x1="66" y1="772" x2="66" y2="690" stroke="#777777" stroke-width="10"/>
<line x1="95" y1="772" x2="95" y2="690" stroke="#777777" stroke-width="10"/>
<path d="M66 772C66 779.732 72.4919 786 80.5 786C88.5081 786 95 779.732 95 772" stroke="#777777" stroke-width="10"/>
<path d="M66 690C66 682.268 72.4919 676 80.5 676C88.5081 676 95 682.268 95 690" stroke="#777777" stroke-width="10"/>
<line x1="181" y1="772" x2="181" y2="690" stroke="#777777" stroke-width="10"/>
<line x1="210" y1="772" x2="210" y2="690" stroke="#777777" stroke-width="10"/>
<path d="M181 772C181 779.732 187.492 786 195.5 786C203.508 786 210 779.732 210 772" stroke="#777777" stroke-width="10"/>
<path d="M181 690C181 682.268 187.492 676 195.5 676C203.508 676 210 682.268 210 690" stroke="#777777" stroke-width="10"/>
<line x1="123" y1="772" x2="123" y2="690" stroke="#777777" stroke-width="10"/>
<line x1="152" y1="772" x2="152" y2="690" stroke="#777777" stroke-width="10"/>
<path d="M123 772C123 779.732 129.492 786 137.5 786C145.508 786 152 779.732 152 772" stroke="#777777" stroke-width="10"/>
<path d="M123 690C123 682.268 129.492 676 137.5 676C145.508 676 152 682.268 152 690" stroke="#777777" stroke-width="10"/>
<line x1="5" x2="5" y2="1059" stroke="#777777" stroke-width="10"/>
<line x1="260" x2="260" y2="1059" stroke="#777777" stroke-width="10"/>
<g filter="url(#filter0_f_13_63)">
<circle cx="139.5" cy="931.5" r="43.5" transform="rotate(-90 139.5 931.5)" fill="#0000FF"/>
<circle cx="139.5" cy="931.5" r="38.5" transform="rotate(-90 139.5 931.5)" stroke="#0000FF" stroke-width="10"/>
</g>
<line x1="101" y1="1004" x2="101" y2="1042" stroke="#777777" stroke-width="10"/>
<line x1="138" y1="1004" x2="138" y2="1042" stroke="#777777" stroke-width="10"/>
<line x1="175" y1="1004" x2="175" y2="1042" stroke="#777777" stroke-width="10"/>
<line x1="101" y1="822" x2="101" y2="860" stroke="#777777" stroke-width="10"/>
<line x1="138" y1="822" x2="138" y2="860" stroke="#777777" stroke-width="10"/>
<line x1="175" y1="822" x2="175" y2="860" stroke="#777777" stroke-width="10"/>
<rect x="65" y="1004" width="143" height="143" transform="rotate(-90 65 1004)" stroke="#777777" stroke-width="10"/>
<g filter="url(#filter1_f_13_63)">
<circle cx="139.5" cy="129.5" r="43.5" transform="rotate(-90 139.5 129.5)" fill="#FF0000"/>
<circle cx="139.5" cy="129.5" r="38.5" transform="rotate(-90 139.5 129.5)" stroke="#FF0000" stroke-width="10"/>
</g>
<line x1="101" y1="202" x2="101" y2="240" stroke="#777777" stroke-width="10"/>
<line x1="138" y1="202" x2="138" y2="240" stroke="#777777" stroke-width="10"/>
<line x1="175" y1="202" x2="175" y2="240" stroke="#777777" stroke-width="10"/>
<line x1="101" y1="20" x2="101" y2="58" stroke="#777777" stroke-width="10"/>
<line x1="138" y1="20" x2="138" y2="58" stroke="#777777" stroke-width="10"/>
<line x1="175" y1="20" x2="175" y2="58" stroke="#777777" stroke-width="10"/>
<rect x="65" y="202" width="143" height="143" transform="rotate(-90 65 202)" stroke="#777777" stroke-width="10"/>
<line x1="66" y1="372" x2="66" y2="290" stroke="#777777" stroke-width="10"/>
<line x1="95" y1="372" x2="95" y2="290" stroke="#777777" stroke-width="10"/>
<path d="M66 372C66 379.732 72.4919 386 80.5 386C88.5081 386 95 379.732 95 372" stroke="#777777" stroke-width="10"/>
<path d="M66 290C66 282.268 72.4919 276 80.5 276C88.5081 276 95 282.268 95 290" stroke="#777777" stroke-width="10"/>
<line x1="181" y1="372" x2="181" y2="290" stroke="#777777" stroke-width="10"/>
<line x1="210" y1="372" x2="210" y2="290" stroke="#777777" stroke-width="10"/>
<path d="M181 372C181 379.732 187.492 386 195.5 386C203.508 386 210 379.732 210 372" stroke="#777777" stroke-width="10"/>
<path d="M181 290C181 282.268 187.492 276 195.5 276C203.508 276 210 282.268 210 290" stroke="#777777" stroke-width="10"/>
<line x1="123" y1="372" x2="123" y2="290" stroke="#777777" stroke-width="10"/>
<line x1="152" y1="372" x2="152" y2="290" stroke="#777777" stroke-width="10"/>
<path d="M123 372C123 379.732 129.492 386 137.5 386C145.508 386 152 379.732 152 372" stroke="#777777" stroke-width="10"/>
<path d="M123 290C123 282.268 129.492 276 137.5 276C145.508 276 152 282.268 152 290" stroke="#777777" stroke-width="10"/>
<g filter="url(#filter2_f_13_63)">
<circle cx="139.5" cy="531.5" r="43.5" transform="rotate(-90 139.5 531.5)" fill="#00FF00"/>
<circle cx="139.5" cy="531.5" r="38.5" transform="rotate(-90 139.5 531.5)" stroke="#00FF00" stroke-width="10"/>
</g>
<line x1="101" y1="604" x2="101" y2="642" stroke="#777777" stroke-width="10"/>
<line x1="138" y1="604" x2="138" y2="642" stroke="#777777" stroke-width="10"/>
<line x1="175" y1="604" x2="175" y2="642" stroke="#777777" stroke-width="10"/>
<line x1="101" y1="422" x2="101" y2="460" stroke="#777777" stroke-width="10"/>
<line x1="138" y1="422" x2="138" y2="460" stroke="#777777" stroke-width="10"/>
<line x1="175" y1="422" x2="175" y2="460" stroke="#777777" stroke-width="10"/>
<rect x="65" y="604" width="143" height="143" transform="rotate(-90 65 604)" stroke="#777777" stroke-width="10"/>
<defs>
<filter id="filter0_f_13_63" x="76" y="868" width="127" height="127" filterUnits="userSpaceOnUse" color-interpolation-filters="sRGB">
<feFlood flood-opacity="0" result="BackgroundImageFix"/>
<feBlend mode="normal" in="SourceGraphic" in2="BackgroundImageFix" result="shape"/>
<feGaussianBlur stdDeviation="10" result="effect1_foregroundBlur_13_63"/>
</filter>
<filter id="filter1_f_13_63" x="76" y="66" width="127" height="127" filterUnits="userSpaceOnUse" color-interpolation-filters="sRGB">
<feFlood flood-opacity="0" result="BackgroundImageFix"/>
<feBlend mode="normal" in="SourceGraphic" in2="BackgroundImageFix" result="shape"/>
<feGaussianBlur stdDeviation="10" result="effect1_foregroundBlur_13_63"/>
</filter>
<filter id="filter2_f_13_63" x="76" y="468" width="127" height="127" filterUnits="userSpaceOnUse" color-interpolation-filters="sRGB">
<feFlood flood-opacity="0" result="BackgroundImageFix"/>
<feBlend mode="normal" in="SourceGraphic" in2="BackgroundImageFix" result="shape"/>
<feGaussianBlur stdDeviation="10" result="effect1_foregroundBlur_13_63"/>
</filter>
</defs>
</svg>