<svg xmlns="http://www.w3.org/2000/svg" width="1005" height="592" viewBox="0 0 1005 592" fill="none">
  <rect x="5" y="5" width="995" height="447" stroke="#215EA3" stroke-width="10" />
  <rect x="5" y="67" width="995" height="321" stroke="#215EA3" stroke-width="10" />
  <circle cx="390" cy="245" r="81" stroke="#215EA3" stroke-width="10" />
  <line x1="321" y1="550" x2="362" y2="550" stroke="#215EA3" stroke-width="10"
    stroke-linecap="round" />
  <line x1="342" y1="582" x2="342" y2="317" stroke="#215EA3" stroke-width="10"
    stroke-linecap="round" />
  <line x1="417" y1="550" x2="458" y2="550" stroke="#215EA3" stroke-width="10"
    stroke-linecap="round" />
  <line x1="438" y1="582" x2="438" y2="317" stroke="#215EA3" stroke-width="10"
    stroke-linecap="round" />
  <rect x="270" y="123" width="18" height="18" fill="#215EA3" stroke="#215EA3" stroke-width="10" />
  <rect x="381" y="235" width="18" height="18" fill="#215EA3" stroke="#215EA3" stroke-width="10" />
  <circle cx="840" cy="245" r="81" stroke="#215EA3" stroke-width="10" />
  <path d="M766 550H817" stroke="#215EA3" stroke-width="10" stroke-linecap="round" />
  <path d="M792 587L792 312" stroke="#215EA3" stroke-width="10" stroke-linecap="round" />
  <path d="M862 550H913" stroke="#215EA3" stroke-width="10" stroke-linecap="round" />
  <path d="M888 587L888 312" stroke="#215EA3" stroke-width="10" stroke-linecap="round" />
  <rect x="721" y="123" width="18" height="18" fill="#215EA3" stroke="#215EA3" stroke-width="10" />
  <rect x="927" y="123" width="18" height="18" fill="#215EA3" stroke="#215EA3" stroke-width="10" />
  <rect x="831" y="235" width="18" height="18" fill="#215EA3" stroke="#215EA3" stroke-width="10" />
  <circle cx="615" cy="245" r="81" stroke="#215EA3" stroke-width="10" />
  <path d="M541 550H592" stroke="#215EA3" stroke-width="10" stroke-linecap="round" />
  <path d="M567 587L567 312" stroke="#215EA3" stroke-width="10" stroke-linecap="round" />
  <path d="M637 550H688" stroke="#215EA3" stroke-width="10" stroke-linecap="round" />
  <path d="M663 587L663 312" stroke="#215EA3" stroke-width="10" stroke-linecap="round" />
  <rect x="493" y="123" width="18" height="18" fill="#215EA3" stroke="#215EA3" stroke-width="10" />
  <rect x="606" y="235" width="18" height="18" fill="#215EA3" stroke="#215EA3" stroke-width="10" />
  <circle cx="165" cy="245" r="81" stroke="#215EA3" stroke-width="10" />
  <path d="M91 550H142" stroke="#215EA3" stroke-width="10" stroke-linecap="round" />
  <path d="M117 587L117 312" stroke="#215EA3" stroke-width="10" stroke-linecap="round" />
  <path d="M187 550H238" stroke="#215EA3" stroke-width="10" stroke-linecap="round" />
  <path d="M213 587L213 312" stroke="#215EA3" stroke-width="10" stroke-linecap="round" />
  <rect x="59" y="123" width="18" height="18" fill="#215EA3" stroke="#215EA3" stroke-width="10" />
  <rect x="156" y="235" width="18" height="18" fill="#215EA3" stroke="#215EA3" stroke-width="10" />
</svg>