<svg viewBox="0 0 456 791" fill="none" stroke="white" xmlns="http://www.w3.org/2000/svg">
  <circle cx="279" cy="298" r="5" />
  <path d="M14 786c-4.97 0-9-4.477-9-10M442 786c4.971 0 9-4.477 9-10"
    stroke-width="10" />
  <path stroke-width="10" stroke-linecap="round" d="M279 511V344" />
  <circle cx="333" cy="650" r="29" stroke-width="10" />
  <path stroke-width="10"
    d="M379 115H74M165 85H97M189 31h-31M189 5h-41M398.015 241l-343 1M46 232v-88M88 115V94M174 115V94M144 85V45M118 85V36M195 25V11M75 566V246M39 733V591M5 776v-20M451 776v-20M416 733V591M130 566V246M325 566V246M380 566V246M408 232v-89M46 144c0-16.016 12.536-29 28-29M88 94a9 9 0 0 1 9-9M144 45c0-7.732 6.268-14 14-14M118 36c0-17.12 13.879-31 31-31M195 25a6 6 0 0 1-6 6M195 11a6 6 0 0 0-6-6M174 94a9 9 0 0 0-9-9M354 85h-68M378 31h-31M378 5h-41M277 115V94M363 115V94M333 85V45M307 85V36M384 25V11M277 94a9 9 0 0 1 9-9M333 45c0-7.732 6.268-14 14-14M307 36c0-17.12 13.879-31 31-31M384 25a6 6 0 0 1-6 6M384 11a6 6 0 0 0-6-6M363 94a9 9 0 0 0-9-9M379 115c16.016 0 29 12.536 29 28M393 568H62M39 591c0-12.703 10.297-23 23-23M416 591c0-12.703-10.297-23-23-23M393 568H62" />
  <path
    d="M39 591c0-12.703 10.297-23 23-23M416 591c0-12.703-10.297-23-23-23M428 733H28M442 786H14M5 756c0-12.703 10.297-23 23-23M451 756c0-12.703-10.297-23-23-23M55 242c-4.97 0-9-4.477-9-10M408 232c0 4.971-4.477 9-10 9"
    stroke-width="10" />
</svg>