<svg xmlns="http://www.w3.org/2000/svg" xmlns:xlink="http://www.w3.org/1999/xlink" fill="#DDDDDD"
  height="570px" width="570px" version="1.1" id="Layer_1" viewBox="0 0 512 512"
  xml:space="preserve">
<g>
	<g>
		<path d="M436.825,154.008c5.633,0,10.199-4.567,10.199-10.199V95.341c0-2.705-1.075-5.298-2.987-7.212L358.894,2.987    C356.981,1.075,354.387,0,351.682,0H75.175c-5.633,0-10.199,4.567-10.199,10.199v94.853c0,5.632,4.566,10.199,10.199,10.199    h10.498v65.275H75.175c-5.633,0-10.199,4.567-10.199,10.199v311.076c0,5.632,4.566,10.199,10.199,10.199h124.729    c5.633,0,10.199-4.567,10.199-10.199v-5.1h91.793v5.1c0,5.632,4.566,10.199,10.199,10.199h124.729    c5.633,0,10.199-4.567,10.199-10.199V190.725c0-5.632-4.566-10.199-10.199-10.199h-5.398v-26.518H436.825z M426.626,133.61h-5.398    c-5.633,0-10.199,4.567-10.199,10.199v46.916c0,5.632,4.566,10.199,10.199,10.199h5.398v290.677H322.295v-5.1    c0-5.632-4.566-10.199-10.199-10.199H199.904c-5.633,0-10.199,4.567-10.199,10.199v5.1H85.374V200.924h10.498    c5.633,0,10.199-4.567,10.199-10.199v-85.673c0-5.632-4.566-10.199-10.199-10.199H85.374V20.398h262.083l79.168,79.168V133.61z"/>
	</g>
</g>
<g>
	<g>
		<path d="M385.53,184.606H132.59c-5.633,0-10.199,4.567-10.199,10.199v252.94c0,5.632,4.566,10.199,10.199,10.199h252.94    c5.633,0,10.199-4.567,10.199-10.199v-252.94C395.729,189.173,391.163,184.606,385.53,184.606z M375.331,437.546H142.789V205.004    h232.542V437.546z"/>
	</g>
</g>
<g>
	<g>
		<path d="M327.394,34.677h-10.199c-5.633,0-10.199,4.567-10.199,10.199c0,5.632,4.566,10.199,10.199,10.199h10.199    c5.633,0,10.199-4.567,10.199-10.199C337.594,39.245,333.027,34.677,327.394,34.677z"/>
	</g>
</g>
<g>
	<g>
		<path d="M279.458,34.677H110.151c-5.633,0-10.199,4.567-10.199,10.199c0,5.632,4.566,10.199,10.199,10.199h169.307    c5.633,0,10.199-4.567,10.199-10.199C289.657,39.245,285.091,34.677,279.458,34.677z"/>
	</g>
</g>
</svg>