<svg viewBox="0 0 562 457" xmlns="http://www.w3.org/2000/svg" stroke="white" fill="none">
  <path stroke-width="10" stroke-linecap="round"
    d="m51.11 447.523 33.353-54.417M510.577 447.522l-33.352-54.417M431.338 449.641l-22.598-55.045M129.672 450.318l22.598-55.046M202.496 450.53l11.536-56.529M358.514 450.53l-11.536-56.529M279.228 451.429v-57.004" />
  <path stroke-width="10"
    d="M526 274H36M556.98 309H5.384M562 329H0M562 358H0M557 314c0-22.091-14.327-40-32-40M5 314c0-22.091 14.327-40 32-40" />
  <path d="M170.262 270.307V5M394.961 270.307V5" stroke-width="10"
    stroke-linecap="round" />
  <path stroke-width="10" d="M557 363v-39M5 363v-39" />
</svg>