<svg viewbox="0 0 626 694" fill="none" xmlns="http://www.w3.org/2000/svg" stroke="white">
  <path d="M5 675c0 7.732 6.268 14 14 14M5 655c0-7.732 6.268-14 14-14"
    stroke-width="10" />
  <circle cx="313" cy="254" r="249" stroke-width="10" />
  <circle cx="313.5" cy="254.5" r="81.5" stroke-width="10" />
  <path
    d="M69 260a5 5 0 0 0-10 0h10zm-5 0h-5v376h10V260h-5zM168 454a5 5 0 0 0-10 0h10zm-5 0h-5v184h10V454h-5z" stroke-width="5" />
  <path stroke-width="10"
    d="M19 641h188M19 689h188M5 675v-20M221 675c0 7.732-6.268 14-14 14M221 655c0-7.732-6.268-14-14-14M221 675v-20M621 675c0 7.732-6.268 14-14 14M621 655c0-7.732-6.268-14-14-14" />
  <path
    d="M557 260a5 5 0 0 1 10 0h-10zm5 0h5v376h-10V260h5zM458 454a5 5 0 0 1 10 0h-10zm5 0h5v184h-10V454h5z" stroke-width="5" />
  <path stroke-width="10"
    d="M607 641H419M607 689H419M621 675v-20M405 675c0 7.732 6.268 14 14 14M405 655c0-7.732 6.268-14 14-14M405 675v-20" />
</svg>