<svg xmlns="http://www.w3.org/2000/svg" width="580" height="737" viewBox="0 0 580 737" fill="none">
  <path d="M5 19C5 11.268 11.268 5 19 5" stroke="#5ebc77" stroke-width="10" />
  <path d="M5 39C5 46.732 11.268 53 19 53" stroke="#5ebc77" stroke-width="10" />
  <circle cx="290" cy="370" r="249" stroke="#5ebc77" stroke-width="10" />
  <circle cx="290.5" cy="370.5" r="81.5" stroke="#5ebc77" stroke-width="10" />
  <path
    d="M36 367C36 369.761 38.2386 372 41 372C43.7614 372 46 369.761 46 367L36 367ZM41 367L46 367L46 58L41 58L36 58L36 367L41 367Z"
    fill="#5ebc77" />
  <path
    d="M186 139C186 141.761 188.239 144 191 144C193.761 144 196 141.761 196 139L186 139ZM191 139L196 139L196 56L191 56L186 56L186 139L191 139Z"
    fill="#5ebc77" />
  <line x1="19" y1="53" x2="207" y2="53" stroke="#5ebc77" stroke-width="10" />
  <line x1="19" y1="5" x2="207" y2="5" stroke="#5ebc77" stroke-width="10" />
  <line x1="5" y1="19" x2="5" y2="39" stroke="#5ebc77" stroke-width="10" />
  <path d="M221 19C221 11.268 214.732 5 207 5" stroke="#5ebc77" stroke-width="10" />
  <path d="M221 39C221 46.732 214.732 53 207 53" stroke="#5ebc77" stroke-width="10" />
  <line y1="-5" x2="20" y2="-5" transform="matrix(4.37114e-08 1 1 -4.37114e-08 226 19)"
    stroke="#5ebc77" stroke-width="10" />
  <path d="M575 718C575 725.732 568.732 732 561 732" stroke="#5ebc77" stroke-width="10" />
  <path d="M575 698C575 690.268 568.732 684 561 684" stroke="#5ebc77" stroke-width="10" />
  <path
    d="M544 370C544 367.239 541.761 365 539 365C536.239 365 534 367.239 534 370L544 370ZM539 370L534 370L534 679L539 679L544 679L544 370L539 370Z"
    fill="#5ebc77" />
  <path
    d="M394 598C394 595.239 391.761 593 389 593C386.239 593 384 595.239 384 598L394 598ZM389 598L384 598L384 681L389 681L394 681L394 598L389 598Z"
    fill="#5ebc77" />
  <line x1="561" y1="684" x2="373" y2="684" stroke="#5ebc77" stroke-width="10" />
  <line x1="561" y1="732" x2="373" y2="732" stroke="#5ebc77" stroke-width="10" />
  <line x1="575" y1="718" x2="575" y2="698" stroke="#5ebc77" stroke-width="10" />
  <path d="M359 718C359 725.732 365.268 732 373 732" stroke="#5ebc77" stroke-width="10" />
  <path d="M359 698C359 690.268 365.268 684 373 684" stroke="#5ebc77" stroke-width="10" />
  <line y1="-5" x2="20" y2="-5" transform="matrix(-4.37114e-08 -1 -1 4.37114e-08 354 718)"
    stroke="#5ebc77" stroke-width="10" />
</svg>