<svg xmlns="http://www.w3.org/2000/svg" width="1059" height="265" viewBox="0 0 1059 265" fill="none">
  <line x1="287" y1="66" x2="369" y2="66" stroke="#215EA3" stroke-width="10" />
  <line x1="287" y1="95" x2="369" y2="95" stroke="#215EA3" stroke-width="10" />
  <path d="M287 66C279.268 66 273 72.4919 273 80.5C273 88.5081 279.268 95 287 95" stroke="#215EA3"
    stroke-width="10" />
  <path d="M369 66C376.732 66 383 72.4919 383 80.5C383 88.5081 376.732 95 369 95" stroke="#215EA3"
    stroke-width="10" />
  <line x1="287" y1="181" x2="369" y2="181" stroke="#215EA3" stroke-width="10" />
  <line x1="287" y1="210" x2="369" y2="210" stroke="#215EA3" stroke-width="10" />
  <path d="M287 181C279.268 181 273 187.492 273 195.5C273 203.508 279.268 210 287 210"
    stroke="#215EA3" stroke-width="10" />
  <path d="M369 181C376.732 181 383 187.492 383 195.5C383 203.508 376.732 210 369 210"
    stroke="#215EA3" stroke-width="10" />
  <line x1="287" y1="123" x2="369" y2="123" stroke="#215EA3" stroke-width="10" />
  <line x1="287" y1="152" x2="369" y2="152" stroke="#215EA3" stroke-width="10" />
  <path d="M287 123C279.268 123 273 129.492 273 137.5C273 145.508 279.268 152 287 152"
    stroke="#215EA3" stroke-width="10" />
  <path d="M369 123C376.732 123 383 129.492 383 137.5C383 145.508 376.732 152 369 152"
    stroke="#215EA3" stroke-width="10" />
  <line x1="1059" y1="5" y2="5" stroke="#215EA3" stroke-width="10" />
  <line x1="1059" y1="260" y2="260" stroke="#215EA3" stroke-width="10" />
  <circle cx="127.5" cy="139.5" r="38.5" stroke="#215EA3" stroke-width="10" />
  <line x1="55" y1="101" x2="17" y2="101" stroke="#215EA3" stroke-width="10" />
  <line x1="55" y1="138" x2="17" y2="138" stroke="#215EA3" stroke-width="10" />
  <line x1="55" y1="175" x2="17" y2="175" stroke="#215EA3" stroke-width="10" />
  <line x1="237" y1="101" x2="199" y2="101" stroke="#215EA3" stroke-width="10" />
  <line x1="237" y1="138" x2="199" y2="138" stroke="#215EA3" stroke-width="10" />
  <line x1="237" y1="175" x2="199" y2="175" stroke="#215EA3" stroke-width="10" />
  <rect x="55" y="65" width="143" height="143" stroke="#215EA3" stroke-width="10" />
  <circle cx="929.5" cy="139.5" r="38.5" stroke="#215EA3" stroke-width="10" />
  <line x1="857" y1="101" x2="819" y2="101" stroke="#215EA3" stroke-width="10" />
  <line x1="857" y1="138" x2="819" y2="138" stroke="#215EA3" stroke-width="10" />
  <line x1="857" y1="175" x2="819" y2="175" stroke="#215EA3" stroke-width="10" />
  <line x1="1039" y1="101" x2="1001" y2="101" stroke="#215EA3" stroke-width="10" />
  <line x1="1039" y1="138" x2="1001" y2="138" stroke="#215EA3" stroke-width="10" />
  <line x1="1039" y1="175" x2="1001" y2="175" stroke="#215EA3" stroke-width="10" />
  <rect x="857" y="65" width="143" height="143" stroke="#215EA3" stroke-width="10" />
  <line x1="687" y1="66" x2="769" y2="66" stroke="#215EA3" stroke-width="10" />
  <line x1="687" y1="95" x2="769" y2="95" stroke="#215EA3" stroke-width="10" />
  <path d="M687 66C679.268 66 673 72.4919 673 80.5C673 88.5081 679.268 95 687 95" stroke="#215EA3"
    stroke-width="10" />
  <path d="M769 66C776.732 66 783 72.4919 783 80.5C783 88.5081 776.732 95 769 95" stroke="#215EA3"
    stroke-width="10" />
  <line x1="687" y1="181" x2="769" y2="181" stroke="#215EA3" stroke-width="10" />
  <line x1="687" y1="210" x2="769" y2="210" stroke="#215EA3" stroke-width="10" />
  <path d="M687 181C679.268 181 673 187.492 673 195.5C673 203.508 679.268 210 687 210"
    stroke="#215EA3" stroke-width="10" />
  <path d="M769 181C776.732 181 783 187.492 783 195.5C783 203.508 776.732 210 769 210"
    stroke="#215EA3" stroke-width="10" />
  <line x1="687" y1="123" x2="769" y2="123" stroke="#215EA3" stroke-width="10" />
  <line x1="687" y1="152" x2="769" y2="152" stroke="#215EA3" stroke-width="10" />
  <path d="M687 123C679.268 123 673 129.492 673 137.5C673 145.508 679.268 152 687 152"
    stroke="#215EA3" stroke-width="10" />
  <path d="M769 123C776.732 123 783 129.492 783 137.5C783 145.508 776.732 152 769 152"
    stroke="#215EA3" stroke-width="10" />
  <circle cx="527.5" cy="139.5" r="38.5" stroke="#215EA3" stroke-width="10" />
  <line x1="455" y1="101" x2="417" y2="101" stroke="#215EA3" stroke-width="10" />
  <line x1="455" y1="138" x2="417" y2="138" stroke="#215EA3" stroke-width="10" />
  <line x1="455" y1="175" x2="417" y2="175" stroke="#215EA3" stroke-width="10" />
  <line x1="637" y1="101" x2="599" y2="101" stroke="#215EA3" stroke-width="10" />
  <line x1="637" y1="138" x2="599" y2="138" stroke="#215EA3" stroke-width="10" />
  <line x1="637" y1="175" x2="599" y2="175" stroke="#215EA3" stroke-width="10" />
  <rect x="455" y="65" width="143" height="143" stroke="#215EA3" stroke-width="10" />
</svg>