<svg width="36" height="36" viewBox="0 0 36 36" fill="none" xmlns="http://www.w3.org/2000/svg">
  <g style="mix-blend-mode:plus-lighter">
    <path stroke-width="0"
      d="M12.6792 18.0068C12.6875 17.7246 12.7871 17.4839 13.0112 17.2681L19.4858 10.9346C19.6602 10.752 19.8926 10.6606 20.1582 10.6606C20.6978 10.6606 21.1211 11.0757 21.1211 11.6152C21.1211 11.8809 21.0132 12.1216 20.8306 12.3125L14.9951 18.0068L20.8306 23.7012C21.0132 23.8838 21.1211 24.1245 21.1211 24.3901C21.1211 24.938 20.6978 25.353 20.1582 25.353C19.8926 25.353 19.6602 25.2617 19.4858 25.0791L13.0112 18.7456C12.7871 18.5298 12.6792 18.2891 12.6792 18.0068Z"
      fill="#C2C2C2" />
  </g>
</svg> 