<svg width="20" height="19" viewBox="0 0 20 19" xmlns="http://www.w3.org/2000/svg">
  <path stroke-width="0"
    d="M7.8877 18.8047C7.31348 18.8047 6.88281 18.5894 6.49316 18.1074L1.18164 11.5654C0.884277 11.2065 0.76123 10.8682 0.76123 10.5093C0.76123 9.68896 1.36621 9.09424 2.20703 9.09424C2.70947 9.09424 3.05811 9.27881 3.39648 9.69922L7.84668 15.3389L16.5317 1.57812C16.8804 1.02441 17.229 0.819336 17.8032 0.819336C18.6338 0.819336 19.2285 1.40381 19.2285 2.21387C19.2285 2.53174 19.1362 2.85986 18.8901 3.229L9.29248 18.0767C8.96436 18.5688 8.49268 18.8047 7.8877 18.8047Z"
  />
</svg> 