<svg xmlns="http://www.w3.org/2000/svg" viewBox="-20 0 300 500" fill="none"
  stroke="white">
  <path
    d="M203 160c0-8.284-7.163-15-16-15M81 160c0-8.284 7.163-15 16-15M141 144v-24M187 145H97M81 160v19M203 160v19M25 737.5v-471M258 738V266M88 177h110"
    stroke-width="10" />
  <path stroke-width="10" stroke-linecap="round" d="M230 335v-62M230 705V374" />
  <path stroke-width="10"
    d="M141 68V25M91 5h101M91 25h101M119 94H84M141.5 69c13.452 0 24.5 11.113 24.5 25s-11.048 25-24.5 25S117 107.887 117 94s11.048-25 24.5-25z" />
  <circle cx="44.5" cy="93.5" r="39.5" stroke-width="10" />
  <path
    d="M91 5c-6.627 0-12 4.477-12 10s5.373 10 12 10M192 25c6.627 0 12-4.477 12-10s-5.373-10-12-10M88 177c-24 0-63 42-63 89.5M195 177c20 0 63 42 63 89.5M25 737c0 8.284 7.163 15 16 15M258 737c0 8.284-7.163 15-16 15M242 752H41"
    stroke-width="10" />
</svg>