<svg xmlns="http://www.w3.org/2000/svg" id="micro-memory-card" viewBox="0 0 1000 1000"
  stroke="white" fill="white">
  <path
    d="M836.64,890.49a14,14,0,0,1-6.56-1.64C769,856.39,650.35,836.23,520.34,836.23S271.68,856.39,210.6,888.85a14,14,0,0,1-13.14-24.72c64.88-34.48,188.6-55.9,322.88-55.9s258,21.42,322.89,55.9a14,14,0,0,1-6.59,26.36Z"></path>
  <path
    d="M778.36,967.37h-516A72.37,72.37,0,0,1,190,895.08V161.66a72.37,72.37,0,0,1,72.29-72.29H700.6a72.37,72.37,0,0,1,72.29,72.29V381.48l73.67,73.66a14,14,0,0,1,4.1,9.9v80.7a14,14,0,0,1-14,14h-29v53L847,655.89a13.94,13.94,0,0,1,3.66,9.43V895.08A72.37,72.37,0,0,1,778.36,967.37Zm-516-850A44.34,44.34,0,0,0,218,161.66V895.08a44.34,44.34,0,0,0,44.29,44.29h516a44.34,44.34,0,0,0,44.29-44.29V670.75l-39.33-43.12a14,14,0,0,1-3.66-9.44V545.74a14,14,0,0,1,14-14h29v-60.9L749,397.18a14,14,0,0,1-4.1-9.9V161.66a44.34,44.34,0,0,0-44.29-44.29Z"></path>
  <path
    d="M672.5,308.17H290.08a14,14,0,0,1-14-14V103.37a14,14,0,0,1,14-14H672.5a14,14,0,0,1,14,14v190.8A14,14,0,0,1,672.5,308.17Zm-368.42-28H658.5V117.37H304.08Z"></path>
  <path
    d="M596 308.18a14 14 0 0 1-14-14V103.37a14 14 0 0 1 28 0V294.18A14 14 0 0 1 596 308.18ZM519.53 308.18a14 14 0 0 1-14-14V103.37a14 14 0 0 1 28 0V294.18A14 14 0 0 1 519.53 308.18ZM443.05 308.18a14 14 0 0 1-14-14V103.37a14 14 0 0 1 28 0V294.18A14 14 0 0 1 443.05 308.18ZM366.56 308.18a14 14 0 0 1-14-14V103.37a14 14 0 0 1 28 0V294.18A14 14 0 0 1 366.56 308.18Z"></path>
</svg>